<?xml version="1.0" encoding="UTF-8" standalone="no"?> <svg xmlns="http://www.w3.org/2000/svg" viewBox="0 0 64 64"><title>book, open, read, learn, study, </title><g id="Original_copy" data-name="Original copy"><path d="M60.5,7H58V5.5A1.5,1.5,0,0,0,56.5,4h-24a1.483,1.483,0,0,0-.5.092A1.483,1.483,0,0,0,31.5,4H20V3.1A1.1,1.1,0,0,0,18.9,2H11.1A1.1,1.1,0,0,0,10,3.1V4H7.5A1.5,1.5,0,0,0,6,5.5V7H3.5A1.5,1.5,0,0,0,2,8.5v48A1.5,1.5,0,0,0,3.5,58H26.342a6,6,0,0,0,11.316,0H60.5A1.5,1.5,0,0,0,62,56.5V8.5A1.5,1.5,0,0,0,60.5,7ZM33,6H56V52H33ZM12,4h6V24.149l-2.14-2.674A1.092,1.092,0,0,0,15,21.06l-.559.038L12,24.149ZM8,6h2V26.715a1.1,1.1,0,0,0,1.959.687L15,23.6l3.041,3.8h0a1.1,1.1,0,0,0,.859.412,1.123,1.123,0,0,0,.364-.062A1.1,1.1,0,0,0,20,26.715V6H31V52H8ZM60,56H37.288a1.494,1.494,0,0,0-1.442,1.1,4,4,0,0,1-7.691,0A1.5,1.5,0,0,0,26.712,56H4V9H6V52.5A1.5,1.5,0,0,0,7.5,54h24a1.483,1.483,0,0,0,.5-.092,1.483,1.483,0,0,0,.5.092h24A1.5,1.5,0,0,0,58,52.5V9h2Z"/><path d="M23,10h5a1,1,0,0,0,0-2H23a1,1,0,0,0,0,2Z"/><path d="M23,14h5a1,1,0,0,0,0-2H23a1,1,0,0,0,0,2Z"/><path d="M23,18h5a1,1,0,0,0,0-2H23a1,1,0,0,0,0,2Z"/><path d="M23,22h5a1,1,0,0,0,0-2H23a1,1,0,0,0,0,2Z"/><path d="M23,26h5a1,1,0,0,0,0-2H23a1,1,0,0,0,0,2Z"/><path d="M23,30h5a1,1,0,0,0,0-2H23a1,1,0,0,0,0,2Z"/><path d="M11,34H28a1,1,0,0,0,0-2H11a1,1,0,0,0,0,2Z"/><path d="M11,38H28a1,1,0,0,0,0-2H11a1,1,0,0,0,0,2Z"/><path d="M11,42H28a1,1,0,0,0,0-2H11a1,1,0,0,0,0,2Z"/><path d="M11,46H28a1,1,0,0,0,0-2H11a1,1,0,0,0,0,2Z"/><path d="M11,50H28a1,1,0,0,0,0-2H11a1,1,0,0,0,0,2Z"/><path d="M53,8H36a1,1,0,0,0,0,2H53a1,1,0,0,0,0-2Z"/><path d="M53,12H36a1,1,0,0,0,0,2H53a1,1,0,0,0,0-2Z"/><path d="M53,16H36a1,1,0,0,0,0,2H53a1,1,0,0,0,0-2Z"/><path d="M53,20H36a1,1,0,0,0,0,2H53a1,1,0,0,0,0-2Z"/><path d="M53,24H36a1,1,0,0,0,0,2H53a1,1,0,0,0,0-2Z"/><path d="M53,28H36a1,1,0,0,0,0,2H53a1,1,0,0,0,0-2Z"/><path d="M53,32H36a1,1,0,0,0,0,2H53a1,1,0,0,0,0-2Z"/><path d="M53,36H36a1,1,0,0,0,0,2H53a1,1,0,0,0,0-2Z"/><path d="M53,40H36a1,1,0,0,0,0,2H53a1,1,0,0,0,0-2Z"/><path d="M53,44H36a1,1,0,0,0,0,2H53a1,1,0,0,0,0-2Z"/><path d="M53,48H36a1,1,0,0,0,0,2H53a1,1,0,0,0,0-2Z"/></g></svg>